<?xml version="1.0" encoding="UTF-8" standalone="no"?>
<svg
   xmlns:dc="http://purl.org/dc/elements/1.1/"
   xmlns:cc="http://creativecommons.org/ns#"
   xmlns:rdf="http://www.w3.org/1999/02/22-rdf-syntax-ns#"
   xmlns:svg="http://www.w3.org/2000/svg"
   xmlns="http://www.w3.org/2000/svg"
   xmlns:sodipodi="http://sodipodi.sourceforge.net/DTD/sodipodi-0.dtd"
   xmlns:inkscape="http://www.inkscape.org/namespaces/inkscape"
   id="Layer_1"
   style="enable-background:new 0 0 30 30;"
   version="1.1"
   viewBox="0 0 30 30"
   xml:space="preserve"
   sodipodi:docname="money.svg"
   inkscape:version="0.92.1 r15371"><metadata
     id="metadata17"><rdf:RDF><cc:Work
         rdf:about=""><dc:format>image/svg+xml</dc:format><dc:type
           rdf:resource="http://purl.org/dc/dcmitype/StillImage" /></cc:Work></rdf:RDF></metadata><defs
     id="defs15" /><sodipodi:namedview
     pagecolor="#ffffff"
     bordercolor="#666666"
     borderopacity="1"
     objecttolerance="10"
     gridtolerance="10"
     guidetolerance="10"
     inkscape:pageopacity="0"
     inkscape:pageshadow="2"
     inkscape:window-width="1341"
     inkscape:window-height="738"
     id="namedview13"
     showgrid="false"
     inkscape:zoom="15.733333"
     inkscape:cx="2.0799765"
     inkscape:cy="12.193964"
     inkscape:window-x="0"
     inkscape:window-y="0"
     inkscape:window-maximized="0"
     inkscape:current-layer="Layer_1" /><path
     d="  M3.85,15.989C1.145,15.989,1,13.485,1,13"
     style="fill:#0000ff;stroke:#fffe00;stroke-width:2;stroke-linecap:round;stroke-linejoin:round;stroke-miterlimit:10;stroke-opacity:1;fill-opacity:1"
     id="path2" /><path
     d="M25.659,15.511c-0.419-0.27-0.737-0.684-0.847-1.17c-0.125-0.551-0.314-1.083-0.558-1.593  c-0.243-0.509-0.246-1.099-0.024-1.617L26,7c-2.1,0-3.667,0.529-4.781,1.143c-0.542,0.299-1.194,0.311-1.754,0.048  C17.856,7.434,15.99,7,14,7C7.925,7,3,11.029,3,16c0,1.989,0.798,3.821,2.133,5.31l2.242,5.231c0.347,0.809,1.102,1.419,1.982,1.456  c1.391,0.06,2.478-1.155,2.283-2.517l-0.01-0.07c-0.045-0.316,0.225-0.585,0.542-0.541C12.766,24.953,13.376,25,14,25  c0.624,0,1.235-0.047,1.829-0.131c0.328-0.046,0.583,0.229,0.538,0.557c-0.135,0.997,0.37,2.018,1.302,2.398  c1.192,0.487,2.442-0.088,2.903-1.163l1.296-3.023c0.251-0.586,0.767-1.017,1.388-1.161l2.135-0.494l1.104-5.933L25.659,15.511z"
     id="path4"
     style="stroke:#fffe00;stroke-opacity:1;fill:#0000ff;fill-opacity:1" /><path
     d="M26.863,19.128c-0.308,1.655-1.038,2.94-1.629,2.87c-0.591-0.07-0.82-1.47-0.512-3.125c0.308-1.655,1.038-2.94,1.629-2.87  C26.942,16.073,27.171,17.472,26.863,19.128z"
     id="path6"
     style="stroke:#fffe00;stroke-opacity:1;fill:#0000ff;fill-opacity:1" /><g
     id="g10"
     style="stroke:#fffe00;stroke-opacity:1;fill:#0000ff;fill-opacity:1"><path
       d="M14,5c1.023,0,2.014,0.111,2.97,0.301C16.977,5.2,17,5.103,17,5c0-2.209-1.791-4-4-4S9,2.791,9,5   c0,0.282,0.031,0.556,0.086,0.822C10.604,5.295,12.261,5,14,5z"
       id="path8"
       style="stroke:#fffe00;stroke-opacity:1;fill:#0000ff;fill-opacity:1" /></g></svg>